<svg width="34" height="33" viewBox="0 0 34 33" fill="none" xmlns="http://www.w3.org/2000/svg">
<path d="M14.745 3.10545L14.4346 0.28788C10.2689 -0.987545 5.82671 2.17919 3.12552 5.76785C1.58337 7.85314 0.307945 10.1664 1.62217 12.2517C-0.540722 14.2593 -0.540722 18.6966 1.62217 20.7431C0.307945 22.8284 1.58337 25.1417 3.12552 27.2269C5.75396 30.6992 9.10983 32.9786 12.5821 32.9786C16.1707 32.9786 19.0659 30.0057 19.0659 26.3783V23.6384C19.0659 21.7858 18.3725 20.7431 17.0194 19.3174L14.9729 17.1157C15.0117 16.9218 15.0117 16.7665 15.0117 16.5774C15.0117 15.074 13.9303 13.9926 12.4269 13.9926C11.0011 13.9926 9.88089 15.074 9.88089 16.5774C9.88089 17.9305 11.0011 19.0458 12.4269 19.0458C12.6209 19.0458 12.7761 19.007 12.8876 19.007L15.0117 21.2474C15.8216 22.135 16.2095 22.7896 16.2095 23.8711V26.3783C16.2095 29.5062 13.6635 30.8156 10.846 29.7729C8.95464 29.0795 7.02453 27.6489 5.24961 25.3357C3.66866 23.134 4.01298 22.0962 4.90045 21.4754C5.67151 21.0147 6.48139 21.0875 7.87319 22.8284C7.80045 23.0564 7.76166 23.328 7.76166 23.5995C7.76166 25.0253 8.92069 26.1844 10.3077 26.1844C11.6946 26.1844 12.8149 25.0253 12.8149 23.5995C12.8149 22.2126 11.6946 21.0535 10.3077 21.0535H10.1137C8.45515 18.9295 6.44743 17.465 3.66866 18.9295C2.66481 18.042 2.82 14.8753 3.66866 14.0654C6.44743 15.5299 8.45515 14.0654 10.1137 11.9413H10.3077C11.6946 11.9413 12.8149 10.7823 12.8149 9.39529C12.8149 7.96953 11.6946 6.81048 10.3077 6.81048C8.92069 6.81048 7.76166 7.96953 7.76166 9.39529C7.76166 9.66685 7.80045 9.93358 7.87804 10.1664C6.49108 11.9025 5.67637 11.9801 4.90529 11.5194C4.01782 10.9035 3.66866 9.86084 5.25446 7.65915C7.45128 4.80278 11.2339 1.6797 14.745 3.10545ZM19.255 29.8894L19.5654 32.707C23.7311 33.9824 28.1733 30.8156 30.8745 27.2269C32.4166 25.1417 33.692 22.8284 32.3778 20.7431C34.5407 18.7354 34.5407 14.2981 32.3778 12.2517C33.692 10.1664 32.4166 7.85314 30.8745 5.76785C28.2461 2.29558 24.8901 0.0211563 21.4179 0.0211563C17.8293 0.0211563 14.9341 2.99391 14.9341 6.62136V9.36133C14.9341 11.2139 15.6275 12.2565 16.9806 13.6823L19.0271 15.884C18.9883 16.0779 18.9883 16.2332 18.9883 16.4223C18.9883 17.9256 20.0698 19.007 21.5731 19.007C22.9989 19.007 24.119 17.9256 24.119 16.4223C24.119 15.0692 22.9989 13.9538 21.5731 13.9538C21.3791 13.9538 21.2239 13.9926 21.1124 13.9926L18.9883 11.7522C18.1784 10.8647 17.7905 10.21 17.7905 9.12856V6.62136C17.7905 3.49342 20.3365 2.18405 23.154 3.22669C25.0454 3.92017 26.9755 5.35078 28.7504 7.664C30.3314 9.86568 29.987 10.9035 29.0996 11.5242C28.3285 11.9849 27.5186 11.9122 26.1267 10.1712C26.2044 9.93843 26.2432 9.67171 26.2432 9.40014C26.2432 7.97437 25.0842 6.81534 23.6971 6.81534C22.3102 6.81534 21.1899 7.97437 21.1899 9.40014C21.1899 10.7871 22.3102 11.9461 23.6971 11.9461H23.8912C25.5497 14.0702 27.5574 15.5347 30.3362 14.0702C31.3401 14.9577 31.1848 18.1244 30.3362 18.9343C27.5574 17.4698 25.5497 18.9343 23.8912 21.0583H23.6971C22.3102 21.0583 21.1899 22.2174 21.1899 23.6044C21.1899 25.0301 22.3102 26.1892 23.6971 26.1892C25.0842 26.1892 26.2432 25.0301 26.2432 23.6044C26.2432 23.3328 26.2044 23.066 26.1267 22.8333C27.5138 21.0971 28.3285 21.0196 29.0996 21.4803C29.987 22.0962 30.3362 23.1388 28.7504 25.3405C26.5488 28.1921 22.7661 31.3151 19.255 29.8894Z" fill="#191816"/>
</svg>
