<svg width="25" height="26" viewBox="0 0 25 26" fill="none" xmlns="http://www.w3.org/2000/svg">
<path d="M12.5055 0C17.8449 0 21.6755 4.35946 21.6755 10.0154V12.1426C21.6755 12.4467 21.9325 12.8498 22.6337 13.5732C22.7236 13.666 22.8083 13.752 22.9932 13.9393C24.431 15.3976 25 16.2377 25 17.5894C25 18.1805 24.931 18.6413 24.644 19.1934C24.0373 20.3604 22.7513 21.0106 20.8287 21.0106L18.2864 21.012C17.4497 24.1137 15.4534 25.7982 12.5 25.7982C9.51515 25.7982 7.50787 24.0776 6.68724 20.9123L6.71277 21.0106H4.17133C2.19266 21.0106 0.892748 20.3427 0.312051 19.1348C0.05812 18.6066 0 18.1779 0 17.5894C0 16.2377 0.568985 15.3976 2.00681 13.9393C2.19175 13.752 2.27641 13.666 2.36633 13.5732C3.06749 12.8498 3.32447 12.4467 3.32447 12.1426V10.0154C3.32447 4.36166 7.16452 0 12.5055 0ZM15.7792 21.0131H9.22079C9.8271 22.6709 10.872 23.4045 12.5 23.4045C14.128 23.4045 15.1729 22.6709 15.7792 21.0131ZM12.5055 2.39362C8.55913 2.39362 5.71809 5.62057 5.71809 10.0154V12.1426C5.71809 13.2763 5.20021 14.0886 4.08512 15.2391C3.98769 15.3396 3.89573 15.433 3.71128 15.6198C2.71808 16.6271 2.39362 17.1062 2.39362 17.5894C2.39362 17.8448 2.41163 17.9777 2.46931 18.0977C2.612 18.3945 3.04509 18.617 4.17133 18.617H20.8287C21.9192 18.617 22.3624 18.3929 22.5202 18.0894C22.586 17.9629 22.6064 17.8265 22.6064 17.5894C22.6064 17.1062 22.2819 16.6271 21.2887 15.6198C21.1043 15.433 21.0123 15.3396 20.9149 15.2391C19.7998 14.0886 19.2819 13.2763 19.2819 12.1426V10.0154C19.2819 5.61749 16.4491 2.39362 12.5055 2.39362Z" fill="#191816"/>
</svg>
