<svg width="264" height="34" viewBox="0 0 264 34" fill="none" xmlns="http://www.w3.org/2000/svg">
<g clip-path="url(#clip0_41_3)">
<path d="M106.029 18.7061C106.756 15.5834 109.089 14.2236 111.771 14.2236C114.453 14.2236 117.082 15.5737 117.436 18.7061H106.029ZM121.033 28.5743L121.415 24.2764C115.112 27.7391 107.327 28.2247 106.146 22.1639H122.064V20.2456C121.87 13.7185 116.898 10.4938 111.771 10.4938C106.528 10.4938 101.401 13.8351 101.401 20.6292C101.401 30.9152 112.42 33.0229 121.033 28.5743Z" fill="#191816"/>
<path d="M82.8731 18.7061C83.5993 15.5834 85.9329 14.2236 88.615 14.2236C91.2922 14.2236 93.926 15.5737 94.2794 18.7061H82.8731ZM97.8717 28.5743L98.2542 24.2764C91.9507 27.7391 84.1658 28.2247 82.9845 22.1639H98.9029V20.2456C98.7092 13.7185 93.7371 10.4938 88.6102 10.4938C83.367 10.4938 78.2399 13.8351 78.2399 20.6292C78.2399 30.9152 89.2637 33.0229 97.8717 28.5743Z" fill="#191816"/>
<path d="M129.868 2.50983H125.468V30.2256H129.868V21.7025C131.553 21.7025 132.855 21.7025 134.192 22.9312C136.065 24.8495 137.445 27.3068 138.709 30.2256H143.758C142.534 26.3113 138.67 20.2068 134.574 20.2068V19.6288C137.944 19.6288 142.073 14.3304 143.183 11.0329H138.554C137.484 13.3348 136.065 15.4473 134.114 17.1762C132.812 18.4049 131.243 18.3661 129.868 18.3661V2.50983Z" fill="#191816"/>
<path d="M152.153 15.2143V8.07535H158.66C162.14 8.07535 163.482 9.8431 163.482 11.6448C163.482 13.4126 162.14 15.2143 158.66 15.2143H152.153ZM152.153 26.19V19.0509H159.731C163.211 19.0509 164.552 20.8187 164.552 22.6204C164.552 24.3881 163.138 26.19 159.653 26.19H152.153ZM159.614 4.04449H147.559V30.2208H160.761C166.386 30.2208 169.219 27.0349 169.219 23.1984C169.219 19.8182 166.769 17.4046 162.601 17.1326V16.5208C166.58 15.7922 168.072 13.296 168.072 10.6881C168.072 7.15262 165.317 4.04449 159.614 4.04449Z" fill="#191816"/>
<path d="M172.602 11.0281V30.2208H177.004V17.3268C178.65 15.6757 180.789 15.1027 184.276 15.1027H186.038L185.694 10.6881H184.28C181.37 10.6881 178.616 11.9556 177.547 14.6025H177.008V11.0281H172.602Z" fill="#191816"/>
<path d="M191.402 20.6244C191.402 16.4041 193.789 14.2526 197.003 14.2526C199.604 14.2526 201.419 15.0588 203.027 16.71V24.5386C201.419 26.1899 199.604 26.996 197.003 26.996C193.794 26.996 191.402 24.8494 191.402 20.6244ZM203.031 11.028V13.8302H202.532C200.808 11.5671 198.805 10.4161 195.856 10.4161C189.847 10.4161 186.847 15.2919 186.847 20.6244C186.847 25.9567 189.847 30.8326 195.856 30.8326C198.805 30.8326 200.808 29.6817 202.532 27.4186H203.031V30.2207H207.433V11.028H203.031Z" fill="#191816"/>
<path d="M212.728 30.2207H217.13V11.028H212.728V30.2207ZM214.951 8.57551C216.785 8.57551 218.011 7.34683 218.011 5.50623C218.011 3.66564 216.785 2.43695 214.951 2.43695C213.116 2.43695 211.891 3.66564 211.891 5.50623C211.887 7.34683 213.111 8.57551 214.951 8.57551Z" fill="#191816"/>
<path d="M226.831 11.028H222.431V30.2207H226.831V16.71C228.439 15.1365 230.215 14.2526 232.355 14.2526C234.689 14.2526 236.886 15.5591 236.886 19.4733V30.2207H241.288V18.4778C241.288 13.5242 238.973 10.4161 234.195 10.4161C231.595 10.4161 228.976 11.5282 227.253 13.9856H226.831V11.028Z" fill="#191816"/>
<path d="M244.981 16.5984C244.981 20.0124 248.158 21.3577 250.607 21.8967L256.232 23.0866C258.067 23.4702 258.91 24.0094 258.91 24.9272C258.91 26.3113 256.998 26.962 254.204 26.962C250.913 26.962 247.126 25.6945 245.02 24.5435L245.402 28.8803C247.853 30.1478 251.029 30.8374 253.972 30.8374C259.443 30.8374 263.5 29.0357 263.5 24.7329C263.5 21.2411 260.59 19.9348 257.186 19.2063L252.059 18.133C250.452 17.7882 249.571 17.2492 249.571 16.3313C249.571 15.0249 251.294 14.3352 254.049 14.3352C257.148 14.3352 260.478 15.4863 262.236 16.4478L261.854 12.111C259.747 11.0377 257.032 10.421 254.278 10.421C249.271 10.4161 244.981 12.1839 244.981 16.5984Z" fill="#191816"/>
<path d="M62.2198 15.7631V19.9736H70.3823V24.6892C68.1796 25.9665 65.9041 26.5492 63.74 26.5492C58.5646 26.5492 53.8588 23.1789 53.8588 17.1762C53.8588 11.1737 58.5695 7.80334 63.74 7.80334C67.0612 7.80334 70.5954 9.14856 73.8003 11.8585L73.3259 6.50181C70.2275 4.46695 66.8191 3.50537 63.2219 3.50537C56.0277 3.50537 48.9884 8.3424 48.9884 17.1714C48.9884 26.0005 56.0277 30.8374 63.2219 30.8374C66.8191 30.8374 70.5712 30.0313 74.8171 26.8843V15.7631H62.2198Z" fill="#191816"/>
<path d="M14.745 3.10545L14.4346 0.28788C10.2689 -0.987545 5.82671 2.17919 3.12552 5.76785C1.58337 7.85314 0.307945 10.1664 1.62217 12.2517C-0.540722 14.2593 -0.540722 18.6966 1.62217 20.7431C0.307945 22.8284 1.58337 25.1417 3.12552 27.2269C5.75396 30.6992 9.10983 32.9786 12.5821 32.9786C16.1707 32.9786 19.0659 30.0057 19.0659 26.3783V23.6384C19.0659 21.7858 18.3725 20.7431 17.0194 19.3174L14.9729 17.1157C15.0117 16.9218 15.0117 16.7665 15.0117 16.5774C15.0117 15.074 13.9303 13.9926 12.4269 13.9926C11.0011 13.9926 9.88089 15.074 9.88089 16.5774C9.88089 17.9305 11.0011 19.0458 12.4269 19.0458C12.6209 19.0458 12.7761 19.007 12.8876 19.007L15.0117 21.2474C15.8216 22.135 16.2095 22.7896 16.2095 23.8711V26.3783C16.2095 29.5062 13.6635 30.8156 10.846 29.7729C8.95464 29.0795 7.02453 27.6489 5.24961 25.3357C3.66866 23.134 4.01298 22.0962 4.90045 21.4754C5.67151 21.0147 6.48139 21.0875 7.87319 22.8284C7.80045 23.0564 7.76166 23.328 7.76166 23.5995C7.76166 25.0253 8.92069 26.1844 10.3077 26.1844C11.6946 26.1844 12.8149 25.0253 12.8149 23.5995C12.8149 22.2126 11.6946 21.0535 10.3077 21.0535H10.1137C8.45515 18.9295 6.44743 17.465 3.66866 18.9295C2.66481 18.042 2.82 14.8753 3.66866 14.0654C6.44743 15.5299 8.45515 14.0654 10.1137 11.9413H10.3077C11.6946 11.9413 12.8149 10.7823 12.8149 9.39529C12.8149 7.96953 11.6946 6.81048 10.3077 6.81048C8.92069 6.81048 7.76166 7.96953 7.76166 9.39529C7.76166 9.66685 7.80045 9.93358 7.87804 10.1664C6.49108 11.9025 5.67637 11.9801 4.90529 11.5194C4.01782 10.9035 3.66866 9.86084 5.25446 7.65915C7.45128 4.80278 11.2339 1.6797 14.745 3.10545ZM19.255 29.8894L19.5654 32.707C23.7311 33.9824 28.1733 30.8156 30.8745 27.2269C32.4166 25.1417 33.692 22.8284 32.3778 20.7431C34.5407 18.7354 34.5407 14.2981 32.3778 12.2517C33.692 10.1664 32.4166 7.85314 30.8745 5.76785C28.2461 2.29558 24.8901 0.0211563 21.4179 0.0211563C17.8293 0.0211563 14.9341 2.99391 14.9341 6.62136V9.36133C14.9341 11.2139 15.6275 12.2565 16.9806 13.6823L19.0271 15.884C18.9883 16.0779 18.9883 16.2332 18.9883 16.4223C18.9883 17.9256 20.0698 19.007 21.5731 19.007C22.9989 19.007 24.119 17.9256 24.119 16.4223C24.119 15.0692 22.9989 13.9538 21.5731 13.9538C21.3791 13.9538 21.2239 13.9926 21.1124 13.9926L18.9883 11.7522C18.1784 10.8647 17.7905 10.21 17.7905 9.12856V6.62136C17.7905 3.49342 20.3365 2.18405 23.154 3.22669C25.0454 3.92017 26.9755 5.35078 28.7504 7.664C30.3314 9.86568 29.987 10.9035 29.0996 11.5242C28.3285 11.9849 27.5186 11.9122 26.1267 10.1712C26.2044 9.93843 26.2432 9.67171 26.2432 9.40014C26.2432 7.97437 25.0842 6.81534 23.6971 6.81534C22.3102 6.81534 21.1899 7.97437 21.1899 9.40014C21.1899 10.7871 22.3102 11.9461 23.6971 11.9461H23.8912C25.5497 14.0702 27.5574 15.5347 30.3362 14.0702C31.3401 14.9577 31.1848 18.1244 30.3362 18.9343C27.5574 17.4698 25.5497 18.9343 23.8912 21.0583H23.6971C22.3102 21.0583 21.1899 22.2174 21.1899 23.6044C21.1899 25.0301 22.3102 26.1892 23.6971 26.1892C25.0842 26.1892 26.2432 25.0301 26.2432 23.6044C26.2432 23.3328 26.2044 23.066 26.1267 22.8333C27.5138 21.0971 28.3285 21.0196 29.0996 21.4803C29.987 22.0962 30.3362 23.1388 28.7504 25.3405C26.5488 28.1921 22.7661 31.3151 19.255 29.8894Z" fill="#191816"/>
</g>
<defs>
<clipPath id="clip0_41_3">
<rect width="263.5" height="34" fill="white"/>
</clipPath>
</defs>
</svg>
