<svg width="24" height="24" viewBox="0 0 24 24" fill="none" xmlns="http://www.w3.org/2000/svg">
<path fill-rule="evenodd" clip-rule="evenodd" d="M9.94287 0C4.45157 0 0 4.45158 0 9.94287C0 15.4342 4.45157 19.8857 9.94287 19.8857C12.2437 19.8857 14.3619 19.1043 16.0467 17.7923L21.8929 23.6385C22.375 24.1205 23.1565 24.1205 23.6385 23.6385C24.1205 23.1565 24.1205 22.375 23.6385 21.893L17.7922 16.0467C19.1043 14.3619 19.8857 12.2437 19.8857 9.94287C19.8857 4.45158 15.4342 0 9.94287 0ZM9.94287 2.46858C5.81493 2.46858 2.46857 5.81493 2.46857 9.94287C2.46857 14.0708 5.81493 17.4172 9.94287 17.4172C14.0708 17.4172 17.4172 14.0708 17.4172 9.94287C17.4172 5.81493 14.0708 2.46858 9.94287 2.46858Z" fill="#D5D6DC"/>
</svg>
